<svg height="512" viewBox="0 0 128 128" width="512" xmlns="http://www.w3.org/2000/svg" xmlns:xlink="http://www.w3.org/1999/xlink"><linearGradient id="a" gradientUnits="userSpaceOnUse" x1="94.243" x2="52.367" y1="75.633" y2="33.757"><stop offset="0" stop-color="#5360d9"/><stop offset="1" stop-color="#79d5dd"/></linearGradient><path d="m36.062 52.537a1.751 1.751 0 0 1 0-2.475l3.438-3.437a1.75 1.75 0 0 1 2.475 2.475l-3.438 3.438a1.752 1.752 0 0 1 -2.475 0zm66.8-.787h.115a1.749 1.749 0 0 0 1.633-1.859l-.47-7.321a1.75 1.75 0 1 0 -3.493.225l.471 7.321a1.749 1.749 0 0 0 1.744 1.634zm-12.7 12.761a1.751 1.751 0 0 0 2.475 0l3.613-3.611a1.749 1.749 0 0 0 0-2.475l-26.673-26.675a1.75 1.75 0 0 0 -2.474 0l-49.116 49.116a1.751 1.751 0 0 0 0 2.475l26.672 26.672a1.752 1.752 0 0 0 2.475 0l39.377-39.377a1.75 1.75 0 0 0 -2.475-2.475l-38.136 38.139-24.2-24.2 46.64-46.637 24.2 24.2-2.377 2.376a1.751 1.751 0 0 0 -.002 2.472zm24.638-38.323a38.407 38.407 0 0 1 -5.408 4.505l1.745 27.207a1.755 1.755 0 0 1 -.509 1.35l-63.49 63.491a1.752 1.752 0 0 1 -2.475 0l-39.4-39.4a1.748 1.748 0 0 1 0-2.474l25.674-25.68a1.75 1.75 0 1 1 2.474 2.475l-24.437 24.438 36.926 36.926 61.694-61.693-2.229-34.7-6.226-.4a17.432 17.432 0 0 0 -2.077 4.919 4.713 4.713 0 0 1 3.67 5.943 1.74 1.74 0 0 1 -.287.77 4.694 4.694 0 0 1 -.9 1.309 4.75 4.75 0 0 1 -6.718-6.718 4.687 4.687 0 0 1 .573-.468 16.161 16.161 0 0 1 1.887-6l-24.62-1.581-23.589 23.593a1.749 1.749 0 0 1 -2.478-2.479l24.152-24.149a1.728 1.728 0 0 1 1.35-.509l27.205 1.748a38.281 38.281 0 0 1 4.5-5.408c7.6-7.6 16.125-10.547 19.834-6.853 3.702 3.712.759 12.238-6.841 19.838zm-17.735 4.747a1.25 1.25 0 1 0 0 1.768 1.246 1.246 0 0 0 0-1.768zm15.257-7.222c6.729-6.729 8.524-13.206 6.849-14.888s-8.156.125-14.884 6.852a36.19 36.19 0 0 0 -2.836 3.2l5.674.364a1.751 1.751 0 0 1 1.634 1.634l.364 5.674a36.2 36.2 0 0 0 3.199-2.836zm-60.016 43.911a6 6 0 1 1 -8.465 8.515 6.006 6.006 0 1 1 8.465-8.515zm-2.426 2.426c-1.312-1.312-2.97-1.436-4.034-.371-1.039 1.039-.916 2.648.421 3.985s3.019 1.435 4.034.42c1.04-1.039.94-2.673-.421-4.034zm13.044 4.43a6.005 6.005 0 1 1 8.613.1 5.923 5.923 0 0 1 -8.613-.1zm2.426-2.425c1.312 1.312 2.97 1.435 4.035.371s.939-2.674-.4-4.01-3.016-1.436-4.031-.416c-1.09 1.084-.966 2.693.396 4.055zm-3.862 12.029-5.173-28.836-2.624 2.624 5.174 28.836z" fill="url(#a)"/></svg>